<?xml version="1.0" encoding="utf-8"?>
<!-- Generator: Adobe Illustrator 18.0.0, SVG Export Plug-In . SVG Version: 6.00 Build 0)  -->
<!DOCTYPE svg PUBLIC "-//W3C//DTD SVG 1.0//EN" "http://www.w3.org/TR/2001/REC-SVG-20010904/DTD/svg10.dtd">
<svg version="1.0" id="Layer_1" xmlns="http://www.w3.org/2000/svg" xmlns:xlink="http://www.w3.org/1999/xlink" x="0px" y="0px"
	 viewBox="0 0 140 74" enable-background="new 0 0 140 74" xml:space="preserve">
<g>
	<g>
		<g>
			<rect x="40.3" y="49.8" fill="#58595b" width="6" height="23.8"/>
			<path fill="#58595b" d="M94.6,56.6c-0.2-0.1-2.2-1.3-5-1.3c-3.9,0-6.6,2.7-6.6,6.3c0,3.5,2.6,6.4,6.6,6.4c2.8,0,4.8-1.1,5-1.3
				v6.4c-0.8,0.2-2.8,0.9-5.5,0.9c-6.7,0-12.7-4.7-12.7-12.3c0-7.1,5.4-12.3,12.7-12.3c2.8,0,4.9,0.7,5.5,0.9V56.6z"/>
			<path fill="#58595b" d="M32,56.6c-0.2-0.1-2.2-1.3-5-1.3c-3.9,0-6.6,2.7-6.6,6.3c0,3.5,2.6,6.4,6.6,6.4c2.8,0,4.8-1.1,5-1.3v6.4
				c-0.8,0.2-2.8,0.9-5.5,0.9c-6.7,0-12.6-4.7-12.6-12.3c0-7.1,5.4-12.3,12.6-12.3c2.8,0,4.9,0.7,5.5,0.9V56.6z"/>
			<path fill="#58595b" d="M126.1,61.7c0,6.8-5.3,12.3-12.5,12.3S101,68.5,101,61.7s5.2-12.3,12.5-12.3S126.1,54.9,126.1,61.7z
				 M113.5,55.4c-3.6,0-6.2,2.8-6.2,6.3s2.7,6.3,6.2,6.3c3.6,0,6.2-2.8,6.2-6.3C119.7,58.2,117,55.4,113.5,55.4z"/>
			<path fill="#58595b" d="M69,55.2c-0.1,0-2.6-0.7-4.7-0.7c-2.4,0-3.7,0.8-3.7,1.9c0,1.4,1.8,1.9,2.8,2.3l1.7,0.5
				c3.9,1.2,5.7,3.9,5.7,6.8c0,6-5.3,8-9.8,8c-3.2,0-6.2-0.6-6.5-0.7v-5.5c0.5,0.1,3,0.9,5.7,0.9c3,0,4.4-0.9,4.4-2.2
				c0-1.2-1.2-1.9-2.7-2.4c-0.4-0.1-0.9-0.3-1.3-0.4c-3.3-1-6.1-3-6.1-6.9c0-4.5,3.3-7.4,8.9-7.4c2.9,0,5.7,0.7,5.8,0.8L69,55.2
				L69,55.2z"/>
		</g>
	</g>
	<g>
		<path fill="#58595b" d="M7.5,24.3c0-1.7-1.3-2.9-3-2.9c-1.6,0-3,1.3-3,2.9v6.2c0,1.7,1.3,3,3,3s3-1.3,3-3V24.3z"/>
		<path fill="#58595b" d="M23.9,16c0-1.7-1.3-3-3-3s-3,1.3-3,3v14.4c0,1.7,1.3,3,3,3s3-1.3,3-3V16z"/>
		<path fill="#58595b" d="M40.2,4.8c0-1.6-1.3-2.9-3-2.9c-1.7,0-3,1.3-3,2.9v31.6c0,1.7,1.3,3,3,3c1.7,0,3-1.3,3-3V4.8z"/>
		<path fill="#58595b" d="M56.6,16c0-1.7-1.3-3-3-3c-1.7,0-3,1.3-3,3v14.4c0,1.7,1.3,3,3,3c1.7,0,3-1.3,3-3V16z"/>
		<path fill="#58595b" d="M72.9,24.3c0-1.7-1.3-2.9-2.9-2.9c-1.7,0-3,1.3-3,2.9v6.2c0,1.7,1.3,3,3,3c1.6,0,2.9-1.3,2.9-3V24.3z"/>
		<path fill="#58595b" d="M89.3,16c0-1.7-1.3-3-3-3c-1.6,0-3,1.3-3,3v14.4c0,1.7,1.3,3,3,3s3-1.3,3-3V16z"/>
		<path fill="#58595b" d="M105.7,4.8c0-1.6-1.3-2.9-3-2.9s-3,1.3-3,2.9v31.6c0,1.7,1.3,3,3,3s3-1.3,3-3V4.8z"/>
		<path fill="#58595b" d="M122,16c0-1.7-1.3-3-3-3c-1.7,0-3,1.3-3,3v14.4c0,1.7,1.3,3,3,3c1.7,0,3-1.3,3-3V16z"/>
		<path fill="#58595b" d="M138.4,24.3c0-1.7-1.3-2.9-3-2.9c-1.7,0-3,1.3-3,2.9v6.2c0,1.7,1.3,3,3,3c1.6,0,3-1.3,3-3V24.3z"/>
	</g>
</g>
</svg>
